0
SECTION
2
HEADER
9
$INSUNITS
70
4
9
$ACADVER
1
AC1014
9
$HANDSEED
5
FFFF
0
ENDSEC
0
SECTION
2
TABLES
0
TABLE
2
VPORT
5
8
100
AcDbSymbolTable
0
ENDTAB
0
TABLE
2
LTYPE
5
5
100
AcDbSymbolTable
0
LTYPE
5
14
100
AcDbSymbolTableRecord
100
AcDbLinetypeTableRecord
2
BYBLOCK
70
0
0
LTYPE
5
15
100
AcDbSymbolTableRecord
100
AcDbLinetypeTableRecord
2
BYLAYER
70
0
0
LTYPE
5
16
100
AcDbSymbolTableRecord
100
AcDbLinetypeTableRecord
2
DASHED
70
0
3
Dashed __ __ __ __ __ __ __ __ __ __ __ __ __ _
72
65
73
2
40
0.75
49
0.5
74
0
49
-0.25
74
0
0
ENDTAB
0
TABLE
2
LAYER
5
2
100
AcDbSymbolTable
70
2
0
LAYER
5
50
100
AcDbSymbolTableRecord
100
AcDbLayerTableRecord
2
0
70
0
62
7
6
CONTINUOUS
0
ENDTAB
0
TABLE
2
STYLE
5
3
100
AcDbSymbolTable
70
1
0
STYLE
5
11
100
AcDbSymbolTableRecord
100
AcDbTextStyleTableRecord
2
STANDARD
70
0
0
ENDTAB
0
TABLE
2
VIEW
5
6
100
AcDbSymbolTable
70
0
0
ENDTAB
0
TABLE
2
UCS
5
7
100
AcDbSymbolTable
70
0
0
ENDTAB
0
TABLE
2
APPID
5
9
100
AcDbSymbolTable
70
2
0
APPID
5
12
100
AcDbSymbolTableRecord
100
AcDbRegAppTableRecord
2
ACAD
70
0
0
ENDTAB
0
TABLE
2
DIMSTYLE
5
A
100
AcDbSymbolTable
70
1
0
ENDTAB
0
TABLE
2
BLOCK_RECORD
5
1
100
AcDbSymbolTable
70
1
0
BLOCK_RECORD
5
1F
100
AcDbSymbolTableRecord
100
AcDbBlockTableRecord
2
*MODEL_SPACE
0
BLOCK_RECORD
5
1B
100
AcDbSymbolTableRecord
100
AcDbBlockTableRecord
2
*PAPER_SPACE
0
ENDTAB
0
ENDSEC
0
SECTION
2
BLOCKS
0
BLOCK
5
20
100
AcDbEntity
100
AcDbBlockBegin
2
*MODEL_SPACE
0
ENDBLK
5
21
100
AcDbEntity
100
AcDbBlockEnd
0
BLOCK
5
1C
100
AcDbEntity
100
AcDbBlockBegin
2
*PAPER_SPACE
0
ENDBLK
5
1D
100
AcDbEntity
100
AcDbBlockEnd
0
ENDSEC
0
SECTION
2
ENTITIES
0
LWPOLYLINE
5
100
100
AcDbEntity
8
0
100
AcDbPolyline
90
32
70
1
43
0.0
10
-40.206988654275222
20
-4.933747678369957
10
-40.206988654275222
20
0.066252321630043132
10
-49.405273952141819
20
0.066252321630045088
10
-49.405273952141819
20
-2.933747678369957
10
-46.405273952141819
20
-2.933747678369957
10
-46.405273952141819
20
-5.9337476783699561
10
-49.405273952141819
20
-5.9337476783699561
10
-49.405273952141819
20
-8.9337476783699561
10
-46.405273952141819
20
-8.9337476783699561
10
-46.405273952141819
20
-11.933747678369958
10
-49.405273952141819
20
-11.933747678369958
10
-49.405273952141819
20
-14.933747678369953
10
-40.206988654275222
20
-14.93374767836996
10
-40.206988654275222
20
-17.933747678369961
10
-34.206988654275222
20
-17.933747678369958
10
-34.206988654275222
20
-14.933747678369958
10
-15.449812762526633
20
-14.933747678369958
10
-15.449812762526633
20
-17.933747678369958
10
-9.4498127625266317
20
-17.933747678369958
10
-9.4498127625266317
20
-14.933747678369958
10
-0.091435761115915559
20
-14.933747678369953
10
-0.091435761115915559
20
-11.933747678369958
10
-3.0914357611159158
20
-11.933747678369958
10
-3.0914357611159158
20
-8.9337476783699561
10
-0.091435761115915559
20
-8.9337476783699561
10
-0.091435761115915559
20
-5.9337476783699561
10
-3.0914357611159158
20
-5.9337476783699561
10
-3.0914357611159158
20
-2.933747678369957
10
-0.091435761115915559
20
-2.933747678369957
10
-0.091435761115915559
20
0.066252321630045352
10
-9.4498127625266317
20
0.066252321630044811
10
-9.4498127625266317
20
-4.9337476783699552
0
ENDSEC
0
SECTION
2
OBJECTS
0
DICTIONARY
5
C
100
AcDbDictionary
3
ACAD_GROUP
350
D
3
ACAD_MLINESTYLE
350
17
0
DICTIONARY
5
D
100
AcDbDictionary
0
DICTIONARY
5
1A
330
C
100
AcDbDictionary
0
DICTIONARY
5
17
100
AcDbDictionary
0
ENDSEC
0
EOF
