0
SECTION
2
HEADER
9
$INSUNITS
70
4
9
$ACADVER
1
AC1014
9
$HANDSEED
5
FFFF
0
ENDSEC
0
SECTION
2
TABLES
0
TABLE
2
VPORT
5
8
100
AcDbSymbolTable
0
ENDTAB
0
TABLE
2
LTYPE
5
5
100
AcDbSymbolTable
0
LTYPE
5
14
100
AcDbSymbolTableRecord
100
AcDbLinetypeTableRecord
2
BYBLOCK
70
0
0
LTYPE
5
15
100
AcDbSymbolTableRecord
100
AcDbLinetypeTableRecord
2
BYLAYER
70
0
0
LTYPE
5
16
100
AcDbSymbolTableRecord
100
AcDbLinetypeTableRecord
2
DASHED
70
0
3
Dashed __ __ __ __ __ __ __ __ __ __ __ __ __ _
72
65
73
2
40
0.75
49
0.5
74
0
49
-0.25
74
0
0
ENDTAB
0
TABLE
2
LAYER
5
2
100
AcDbSymbolTable
70
2
0
LAYER
5
50
100
AcDbSymbolTableRecord
100
AcDbLayerTableRecord
2
0
70
0
62
7
6
CONTINUOUS
0
ENDTAB
0
TABLE
2
STYLE
5
3
100
AcDbSymbolTable
70
1
0
STYLE
5
11
100
AcDbSymbolTableRecord
100
AcDbTextStyleTableRecord
2
STANDARD
70
0
0
ENDTAB
0
TABLE
2
VIEW
5
6
100
AcDbSymbolTable
70
0
0
ENDTAB
0
TABLE
2
UCS
5
7
100
AcDbSymbolTable
70
0
0
ENDTAB
0
TABLE
2
APPID
5
9
100
AcDbSymbolTable
70
2
0
APPID
5
12
100
AcDbSymbolTableRecord
100
AcDbRegAppTableRecord
2
ACAD
70
0
0
ENDTAB
0
TABLE
2
DIMSTYLE
5
A
100
AcDbSymbolTable
70
1
0
ENDTAB
0
TABLE
2
BLOCK_RECORD
5
1
100
AcDbSymbolTable
70
1
0
BLOCK_RECORD
5
1F
100
AcDbSymbolTableRecord
100
AcDbBlockTableRecord
2
*MODEL_SPACE
0
BLOCK_RECORD
5
1B
100
AcDbSymbolTableRecord
100
AcDbBlockTableRecord
2
*PAPER_SPACE
0
ENDTAB
0
ENDSEC
0
SECTION
2
BLOCKS
0
BLOCK
5
20
100
AcDbEntity
100
AcDbBlockBegin
2
*MODEL_SPACE
0
ENDBLK
5
21
100
AcDbEntity
100
AcDbBlockEnd
0
BLOCK
5
1C
100
AcDbEntity
100
AcDbBlockBegin
2
*PAPER_SPACE
0
ENDBLK
5
1D
100
AcDbEntity
100
AcDbBlockEnd
0
ENDSEC
0
SECTION
2
ENTITIES
0
LWPOLYLINE
5
100
100
AcDbEntity
8
0
100
AcDbPolyline
90
44
70
1
43
0.0
10
40.206988654275222
20
-70.869365009718763
10
40.206988654275222
20
-73.869265009718561
10
46.405373952142376
20
-73.869265009718305
10
46.405373952142305
20
-67.869265009718305
10
49.405373952142298
20
-67.869265009718276
10
49.405373952142135
20
-56.006664404110268
10
46.405373952142156
20
-56.006664404110317
10
46.405373952142085
20
-50.00666440411031
10
49.405373952142064
20
-50.006664404110275
10
49.405373952141929
20
-38.144063798502287
10
46.405373952141929
20
-38.144063798502323
10
46.405373952141858
20
-32.144063798502323
10
49.405373952141858
20
-32.144063798502287
10
49.405373952142114
20
-0.14406379850256279
10
45.433536306552512
20
-0.14406379850256337
10
45.433536306552512
20
-3.1440637985024051
10
40.921241938584558
20
-3.1440637985024051
10
40.921241938584558
20
-0.14406379850256334
10
30.921241938584537
20
-0.14406379850256337
10
30.921241938584537
20
-3.1440637985024051
10
18.697047463351289
20
-3.1440637985024051
10
18.697047463351289
20
-0.14406379850256334
10
8.697047463351165
20
-0.14406379850256337
10
8.6970474633511632
20
-3.1440637985024051
10
4.091335761115765
20
-3.1440637985024051
10
4.0913357611157659
20
-0.14406379850256334
10
0.091335761115916014
20
-0.14406379850256279
10
0.091335761115914918
20
-32.144063798502593
10
3.0913357611159147
20
-32.144063798502593
10
3.0913357611159147
20
-38.144063798502593
10
0.091335761115914904
20
-38.144063798502593
10
0.091335761115932959
20
-50.00666440411058
10
3.0913357611159147
20
-50.00666440411058
10
3.0913357611159147
20
-56.00666440411058
10
0.091335761115933223
20
-56.00666440411058
10
0.091335761115915334
20
-67.869265009718575
10
3.0913357611159147
20
-67.869265009718575
10
3.0913357611159147
20
-73.869265009718561
10
9.4498127625266335
20
-73.869265009718561
10
9.4498127625266317
20
-70.869365009718763
10
15.449812762526633
20
-70.869365009718763
10
15.449812762526633
20
-73.869265009718561
10
34.206988654275222
20
-73.869265009718561
10
34.206988654275222
20
-70.869365009718763
0
ENDSEC
0
SECTION
2
OBJECTS
0
DICTIONARY
5
C
100
AcDbDictionary
3
ACAD_GROUP
350
D
3
ACAD_MLINESTYLE
350
17
0
DICTIONARY
5
D
100
AcDbDictionary
0
DICTIONARY
5
1A
330
C
100
AcDbDictionary
0
DICTIONARY
5
17
100
AcDbDictionary
0
ENDSEC
0
EOF
